PathFileType	4	(X/Y/Z)	./resultDataOpenSim/trcMotMarkerGrf/sub10/qtm-03-03.trc
DataRate	CameraRate	NumFrames	NumMarkers	Units	OrigDataRate	OrigDataStartFrame	OrigNumFrames
250.000000	250.000000	7	24	m	250.000000	133	528
Frame#	Time	L.Toe.Tip			R.Toe.Tip			L.Ankle.Lat			R.Ankle.Lat			L.Ankle.Med			R.Ankle.Med			L.Heel			R.Heel			L.Knee.Lat			R.Knee.Lat			L.Knee.Med			R.Knee.Med			L.Thigh.Upper			R.Thigh.Upper			L.ASIS			R.ASIS			V.Sacral			L.Acromium			R.Acromium			C7			L.Elbow			R.Elbow			L.Wrist.Lat			R.Wrist.Lat
		X1	Y1	Z1	X2	Y2	Z2	X3	Y3	Z3	X4	Y4	Z4	X5	Y5	Z5	X6	Y6	Z6	X7	Y7	Z7	X8	Y8	Z8	X9	Y9	Z9	X10	Y10	Z10	X11	Y11	Z11	X12	Y12	Z12	X13	Y13	Z13	X14	Y14	Z14	X15	Y15	Z15	X16	Y16	Z16	X17	Y17	Z17	X18	Y18	Z18	X19	Y19	Z19	X20	Y20	Z20	X21	Y21	Z21	X22	Y22	Z22	X23	Y23	Z23	X24	Y24	Z24

133	0.528	-0.23626248	0.0610068	-0.12619214	-0.72599627	0.038485451	-0.022028496	-0.36957337	0.086473794	-0.16108001	-0.86590223	0.054822053	0.017530319	-0.36127599	0.11331671	-0.07866111	-0.84616788	0.08387865	-0.066346628	-0.42918478	0.057424494	-0.11151648	-0.91864277	0.034771609	-0.031793166	-0.41298539	0.47879635	-0.18193242	-0.7278865	0.43398902	0.072618861	-0.3974586	0.45628506	-0.062897772	-0.71535092	0.4420024	-0.056563002	-0.57569126	0.82687758	-0.23056314	-0.67021391	0.84335148	0.1447417	-0.54167967	0.93383815	-0.15394392	-0.5798209	0.93381862	0.086893842	-0.75619154	0.94423529	-0.066442368	-0.61638391	1.4050302	-0.19430864	-0.64491567	1.4023093	0.12863519	-0.71449667	1.4281758	-0.04528235	-0.73131529	1.0834067	-0.26260534	-0.6604905	1.0417089	0.18006493	-0.61806388	0.87273539	-0.3121391	-0.43779308	0.93114674	0.21621497
134	0.532	-0.21949284	0.060960458	-0.12330941	-0.7259791	0.038454243	-0.022001731	-0.35268214	0.085726301	-0.1607756	-0.86544469	0.054946866	0.017373873	-0.34543234	0.11302426	-0.078416585	-0.84598069	0.083903132	-0.066454296	-0.41268661	0.056909595	-0.11242163	-0.91862701	0.035017577	-0.031920421	-0.40603568	0.47689925	-0.18182942	-0.7252522	0.43326057	0.072576936	-0.39176082	0.45410202	-0.062708309	-0.71237627	0.44112559	-0.056638703	-0.56889279	0.82553849	-0.23020986	-0.66611073	0.84240087	0.14456846	-0.5353195	0.93262543	-0.15348294	-0.57528609	0.93272499	0.087216138	-0.75021059	0.94211341	-0.067289939	-0.61095706	1.4034059	-0.19407275	-0.63983823	1.4007666	0.12887214	-0.70921716	1.4267223	-0.045196057	-0.7274977	1.0825951	-0.26180582	-0.65357241	1.0399872	0.18076485	-0.61655994	0.87093693	-0.31231123	-0.42929676	0.9319764	0.21552279
135	0.536	-0.20312022	0.061033534	-0.12048215	-0.72596396	0.038425313	-0.021960527	-0.33616181	0.085242651	-0.16054002	-0.86500951	0.055087186	0.017230932	-0.32990052	0.11290175	-0.078174031	-0.84577833	0.08393166	-0.066559119	-0.39644786	0.056598868	-0.11309414	-0.91860786	0.035297094	-0.032046131	-0.3992092	0.47493902	-0.18170478	-0.72259303	0.43250004	0.072520819	-0.38607008	0.45178033	-0.062500134	-0.70932915	0.44020035	-0.056703334	-0.56210935	0.82411385	-0.22983883	-0.6619647	0.84139953	0.14435226	-0.52891856	0.93136751	-0.1529958	-0.57075229	0.93159881	0.087552742	-0.74431781	0.93986965	-0.068318301	-0.60548871	1.4017409	-0.19382659	-0.63474197	1.3991708	0.12911002	-0.70396225	1.4252243	-0.045111359	-0.72362571	1.0817423	-0.26093046	-0.64665126	1.0382207	0.181441	-0.6150232	0.86911955	-0.31246941	-0.42086389	0.93273693	0.21481923
136	0.54	-0.18719769	0.061233291	-0.11775134	-0.72594744	0.038398796	-0.021903869	-0.32004584	0.085016886	-0.16037608	-0.86488587	0.055229931	0.017139933	-0.31481064	0.11294321	-0.077996658	-0.84556148	0.08396372	-0.066662342	-0.38043919	0.056450463	-0.11338026	-0.91858634	0.035594426	-0.032170199	-0.39253126	0.4729215	-0.18153803	-0.71996948	0.43169401	0.072414959	-0.38038983	0.44934982	-0.062273453	-0.70622304	0.43924146	-0.056762728	-0.55530063	0.82260413	-0.22944837	-0.65777413	0.84034482	0.14409084	-0.52246794	0.93005932	-0.15248149	-0.56621419	0.93043646	0.087901412	-0.73850547	0.93763627	-0.069450956	-0.60000112	1.4000347	-0.19358825	-0.62964944	1.3975272	0.12935828	-0.69877616	1.4236857	-0.045003576	-0.71977686	1.0808406	-0.26022977	-0.6397283	1.0364106	0.18209318	-0.61344401	0.86728674	-0.312624	-0.41250545	0.93343175	0.21410058
137	0.544	-0.17175026	0.061574133	-0.11513495	-0.72592974	0.038375893	-0.021834966	-0.30434336	0.08502442	-0.1602574	-0.86506496	0.055363867	0.017092951	-0.30035926	0.11310152	-0.077995897	-0.84533602	0.083998967	-0.066765929	-0.36471095	0.05643519	-0.11336287	-0.91856254	0.035893544	-0.032284117	-0.38598687	0.47086263	-0.18133044	-0.71743315	0.43083242	0.072236489	-0.37471704	0.44684613	-0.062021737	-0.70305872	0.43826371	-0.056823993	-0.54843828	0.82101798	-0.22904132	-0.65353643	0.83922503	0.14378976	-0.51596431	0.92869964	-0.15193516	-0.56166685	0.9292342	0.088262688	-0.73272935	0.93551489	-0.070570702	-0.5945076	1.3982905	-0.19336782	-0.62457007	1.3958429	0.12961863	-0.69367112	1.4221082	-0.044857589	-0.71597668	1.0798848	-0.25977154	-0.63280725	1.034563	0.18272354	-0.61177582	0.86545338	-0.31277251	-0.40422261	0.93406436	0.21336724
138	0.548	-0.15678138	0.062070733	-0.11264061	-0.72591775	0.038355841	-0.021762328	-0.28904266	0.085231284	-0.16013987	-0.86530548	0.055486815	0.017051443	-0.28672745	0.11331147	-0.078263584	-0.84510734	0.084039373	-0.066869558	-0.34938229	0.056534017	-0.11331064	-0.91853555	0.036189198	-0.032388445	-0.3795235	0.46878217	-0.18110018	-0.71497189	0.42991936	0.071997505	-0.36904529	0.44430898	-0.061738377	-0.69984071	0.4372767	-0.056888899	-0.54152495	0.81936645	-0.22862153	-0.64924319	0.83802148	0.14344285	-0.50941132	0.92729822	-0.15135284	-0.5571034	0.92798649	0.088640144	-0.726968	0.93348831	-0.07162769	-0.58901026	1.3965099	-0.19316326	-0.61949714	1.3941227	0.1298824	-0.6885412	1.4204867	-0.0447132	-0.71218681	1.0788748	-0.25945396	-0.62588815	1.0326826	0.18333319	-0.6100034	0.86362361	-0.31290981	-0.39601048	0.93463066	0.21262559
139	0.552	-0.14228744	0.062721817	-0.11028074	-0.72591759	0.038338443	-0.021692992	-0.27413982	0.085605142	-0.15999105	-0.86543513	0.055605554	0.01699002	-0.27387542	0.11353645	-0.078728761	-0.84487424	0.084088976	-0.066970714	-0.33455281	0.056725776	-0.11342827	-0.91850459	0.03649128	-0.032499066	-0.37309815	0.46669296	-0.18086281	-0.71249574	0.42897219	0.071741057	-0.36336028	0.44177731	-0.061423165	-0.69657216	0.43628202	-0.056957693	-0.53457062	0.81765806	-0.22818841	-0.64490703	0.83673503	0.14305412	-0.50281933	0.92586614	-0.15074102	-0.55251412	0.9266867	0.089035651	-0.72122143	0.93146205	-0.072627848	-0.58350831	1.3946961	-0.19296582	-0.61440616	1.3923686	0.13013581	-0.6831746	1.4188163	-0.044670104	-0.70834125	1.0778186	-0.25914746	-0.61896692	1.0307712	0.18391942	-0.60818969	0.86178479	-0.31304303	-0.38786468	0.93512091	0.21187828
